<mxfile host="app.diagrams.net" compressed="false" agent="Mozilla/5.0 (Windows NT 10.0; Win64; x64) AppleWebKit/537.36 (KHTML, like Gecko) Chrome/131.0.0.0 Safari/537.36 Edg/131.0.0.0" version="25.0.3">
  <diagram id="Network Topology" name="Network Topology">
    <mxGraphModel dx="784" dy="1510" grid="0" gridSize="10" guides="1" tooltips="1" connect="1" arrows="1" fold="1" page="1" pageScale="1" pageWidth="800" pageHeight="375" background="#4D5766" math="0" shadow="0">
      <root>
        <mxCell id="0" />
        <mxCell id="1" parent="0" />
        <object label="​" id="mid:spine1:e1-1:leaf1:eth2">
          <mxCell style="ellipse;whiteSpace=wrap;html=1;aspect=fixed;fontColor=#FFFFFF;fontSize=6;fillColor=#BEC8D2;strokeColor=none;noLabel=1;" parent="1" vertex="1">
            <mxGeometry x="223.00227732396675" y="-146.00506843730798" width="4" height="4" as="geometry" />
          </mxCell>
        </object>
        <object label="" source="spine1:e1-1:leaf1:eth2" target="mid:spine1:e1-1:leaf1:eth2" id="link_id:spine1:e1-1:leaf1:eth2">
          <mxCell style="rounded=0;orthogonalLoop=1;html=1;startSize=6;endArrow=classicThin;endFill=1;endSize=2;fontSize=14;strokeColor=#98A2AE;fontColor=#FFFFFF;textOpacity=60;labelBackgroundColor=#4D5766;jumpStyle=gap;strokeWidth=3;" parent="1" source="spine1:e1-1:leaf1:eth2" target="mid:spine1:e1-1:leaf1:eth2" edge="1">
            <mxGeometry relative="1" as="geometry" />
          </mxCell>
        </object>
        <object label="" source="leaf1:eth2:spine1:e1-1" target="mid:spine1:e1-1:leaf1:eth2" id="link_id:leaf1:eth2:spine1:e1-1">
          <mxCell style="rounded=0;orthogonalLoop=1;html=1;startSize=6;endArrow=classicThin;endFill=1;endSize=2;fontSize=14;strokeColor=#98A2AE;fontColor=#FFFFFF;textOpacity=60;labelBackgroundColor=#4D5766;jumpStyle=gap;strokeWidth=3;" parent="1" source="leaf1:eth2:spine1:e1-1" target="mid:spine1:e1-1:leaf1:eth2" edge="1">
            <mxGeometry relative="1" as="geometry" />
          </mxCell>
        </object>
        <object label="​" id="mid:spine1:e1-2:leaf2:eth2">
          <mxCell style="ellipse;whiteSpace=wrap;html=1;aspect=fixed;fontColor=#FFFFFF;fontSize=6;fillColor=#BEC8D2;strokeColor=none;noLabel=1;" parent="1" vertex="1">
            <mxGeometry x="345" y="-139.00269732487632" width="4" height="4" as="geometry" />
          </mxCell>
        </object>
        <object label="" source="spine1:e1-2:leaf2:eth2" target="mid:spine1:e1-2:leaf2:eth2" id="link_id:spine1:e1-2:leaf2:eth2">
          <mxCell style="rounded=0;orthogonalLoop=1;html=1;startSize=6;endArrow=classicThin;endFill=1;endSize=2;fontSize=14;strokeColor=#98A2AE;fontColor=#FFFFFF;textOpacity=60;labelBackgroundColor=#4D5766;jumpStyle=gap;strokeWidth=3;" parent="1" source="spine1:e1-2:leaf2:eth2" target="mid:spine1:e1-2:leaf2:eth2" edge="1">
            <mxGeometry relative="1" as="geometry" />
          </mxCell>
        </object>
        <object label="" source="leaf2:eth2:spine1:e1-2" target="mid:spine1:e1-2:leaf2:eth2" id="link_id:leaf2:eth2:spine1:e1-2">
          <mxCell style="rounded=0;orthogonalLoop=1;html=1;startSize=6;endArrow=classicThin;endFill=1;endSize=2;fontSize=14;strokeColor=#98A2AE;fontColor=#FFFFFF;textOpacity=60;labelBackgroundColor=#4D5766;jumpStyle=gap;strokeWidth=3;" parent="1" source="leaf2:eth2:spine1:e1-2" target="mid:spine1:e1-2:leaf2:eth2" edge="1">
            <mxGeometry relative="1" as="geometry" />
          </mxCell>
        </object>
        <object label="​" id="mid:spine1:e1-3:leaf3:eth2">
          <mxCell style="ellipse;whiteSpace=wrap;html=1;aspect=fixed;fontColor=#FFFFFF;fontSize=6;fillColor=#BEC8D2;strokeColor=none;noLabel=1;" parent="1" vertex="1">
            <mxGeometry x="461.7199741537163" y="-143.01224519669654" width="4" height="4" as="geometry" />
          </mxCell>
        </object>
        <object label="" source="spine1:e1-3:leaf3:eth2" target="mid:spine1:e1-3:leaf3:eth2" id="link_id:spine1:e1-3:leaf3:eth2">
          <mxCell style="rounded=0;orthogonalLoop=1;html=1;startSize=6;endArrow=classicThin;endFill=1;endSize=2;fontSize=14;strokeColor=#98A2AE;fontColor=#FFFFFF;textOpacity=60;labelBackgroundColor=#4D5766;jumpStyle=gap;strokeWidth=3;" parent="1" source="spine1:e1-3:leaf3:eth2" target="mid:spine1:e1-3:leaf3:eth2" edge="1">
            <mxGeometry relative="1" as="geometry" />
          </mxCell>
        </object>
        <object label="" source="leaf3:eth2:spine1:e1-3" target="mid:spine1:e1-3:leaf3:eth2" id="link_id:leaf3:eth2:spine1:e1-3">
          <mxCell style="rounded=0;orthogonalLoop=1;html=1;startSize=6;endArrow=classicThin;endFill=1;endSize=2;fontSize=14;strokeColor=#98A2AE;fontColor=#FFFFFF;textOpacity=60;labelBackgroundColor=#4D5766;jumpStyle=gap;strokeWidth=3;" parent="1" source="leaf3:eth2:spine1:e1-3" target="mid:spine1:e1-3:leaf3:eth2" edge="1">
            <mxGeometry relative="1" as="geometry" />
          </mxCell>
        </object>
        <object label="​" id="mid:spine2:e1-1:leaf1:eth3">
          <mxCell style="ellipse;whiteSpace=wrap;html=1;aspect=fixed;fontColor=#FFFFFF;fontSize=6;fillColor=#BEC8D2;strokeColor=none;noLabel=1;" parent="1" vertex="1">
            <mxGeometry x="377.99640477822425" y="-142.00720182027592" width="4" height="4" as="geometry" />
          </mxCell>
        </object>
        <object label="" source="spine2:e1-1:leaf1:eth3" target="mid:spine2:e1-1:leaf1:eth3" id="link_id:spine2:e1-1:leaf1:eth3">
          <mxCell style="rounded=0;orthogonalLoop=1;html=1;startSize=6;endArrow=classicThin;endFill=1;endSize=2;fontSize=14;strokeColor=#98A2AE;fontColor=#FFFFFF;textOpacity=60;labelBackgroundColor=#4D5766;jumpStyle=gap;strokeWidth=3;" parent="1" source="spine2:e1-1:leaf1:eth3" target="mid:spine2:e1-1:leaf1:eth3" edge="1">
            <mxGeometry relative="1" as="geometry" />
          </mxCell>
        </object>
        <object label="" source="leaf1:eth3:spine2:e1-1" target="mid:spine2:e1-1:leaf1:eth3" id="link_id:leaf1:eth3:spine2:e1-1">
          <mxCell style="rounded=0;orthogonalLoop=1;html=1;startSize=6;endArrow=classicThin;endFill=1;endSize=2;fontSize=14;strokeColor=#98A2AE;fontColor=#FFFFFF;textOpacity=60;labelBackgroundColor=#4D5766;jumpStyle=gap;strokeWidth=3;" parent="1" source="leaf1:eth3:spine2:e1-1" target="mid:spine2:e1-1:leaf1:eth3" edge="1">
            <mxGeometry relative="1" as="geometry" />
          </mxCell>
        </object>
        <object label="​" id="mid:spine2:e1-2:leaf2:eth3">
          <mxCell style="ellipse;whiteSpace=wrap;html=1;aspect=fixed;fontColor=#FFFFFF;fontSize=6;fillColor=#BEC8D2;strokeColor=none;noLabel=1;" parent="1" vertex="1">
            <mxGeometry x="492" y="-142.01" width="3" height="3" as="geometry" />
          </mxCell>
        </object>
        <object label="" source="spine2:e1-2:leaf2:eth3" target="mid:spine2:e1-2:leaf2:eth3" id="link_id:spine2:e1-2:leaf2:eth3">
          <mxCell style="rounded=0;orthogonalLoop=1;html=1;startSize=6;endArrow=classicThin;endFill=1;endSize=2;fontSize=14;strokeColor=#98A2AE;fontColor=#FFFFFF;textOpacity=60;labelBackgroundColor=#4D5766;jumpStyle=gap;strokeWidth=3;" parent="1" source="spine2:e1-2:leaf2:eth3" target="mid:spine2:e1-2:leaf2:eth3" edge="1">
            <mxGeometry relative="1" as="geometry" />
          </mxCell>
        </object>
        <object label="" source="leaf2:eth3:spine2:e1-2" target="mid:spine2:e1-2:leaf2:eth3" id="link_id:leaf2:eth3:spine2:e1-2">
          <mxCell style="rounded=0;orthogonalLoop=1;html=1;startSize=6;endArrow=classicThin;endFill=1;endSize=2;fontSize=14;strokeColor=#98A2AE;fontColor=#FFFFFF;textOpacity=60;labelBackgroundColor=#4D5766;jumpStyle=gap;strokeWidth=3;" parent="1" source="leaf2:eth3:spine2:e1-2" target="mid:spine2:e1-2:leaf2:eth3" edge="1">
            <mxGeometry relative="1" as="geometry" />
          </mxCell>
        </object>
        <object label="​" id="mid:spine2:e1-3:leaf3:eth3">
          <mxCell style="ellipse;whiteSpace=wrap;html=1;aspect=fixed;fontColor=#FFFFFF;fontSize=6;fillColor=#BEC8D2;strokeColor=none;noLabel=1;direction=south;" parent="1" vertex="1">
            <mxGeometry x="613.4971468058471" y="-128.0014496311848" width="4" height="4" as="geometry" />
          </mxCell>
        </object>
        <object label="" source="spine2:e1-3:leaf3:eth3" target="mid:spine2:e1-3:leaf3:eth3" id="link_id:spine2:e1-3:leaf3:eth3">
          <mxCell style="rounded=0;orthogonalLoop=1;html=1;startSize=6;endArrow=classicThin;endFill=1;endSize=2;fontSize=14;strokeColor=#98A2AE;fontColor=#FFFFFF;textOpacity=60;labelBackgroundColor=#4D5766;jumpStyle=gap;strokeWidth=3;" parent="1" source="spine2:e1-3:leaf3:eth3" target="mid:spine2:e1-3:leaf3:eth3" edge="1">
            <mxGeometry relative="1" as="geometry" />
          </mxCell>
        </object>
        <object label="" source="leaf3:eth3:spine2:e1-3" target="mid:spine2:e1-3:leaf3:eth3" id="link_id:leaf3:eth3:spine2:e1-3">
          <mxCell style="rounded=0;orthogonalLoop=1;html=1;startSize=6;endArrow=classicThin;endFill=1;endSize=2;fontSize=14;strokeColor=#98A2AE;fontColor=#FFFFFF;textOpacity=60;labelBackgroundColor=#4D5766;jumpStyle=gap;strokeWidth=3;" parent="1" source="leaf3:eth3:spine2:e1-3" target="mid:spine2:e1-3:leaf3:eth3" edge="1">
            <mxGeometry relative="1" as="geometry" />
          </mxCell>
        </object>
        <object label="​" id="mid:client1:eth1:leaf1:eth1">
          <mxCell style="ellipse;whiteSpace=wrap;html=1;aspect=fixed;fontColor=#FFFFFF;fontSize=6;fillColor=#BEC8D2;strokeColor=none;noLabel=1;" parent="1" vertex="1">
            <mxGeometry x="173.75241241093227" y="123.00183802737695" width="4" height="4" as="geometry" />
          </mxCell>
        </object>
        <object label="" source="client1:eth1:leaf1:eth1" target="mid:client1:eth1:leaf1:eth1" id="link_id:client1:eth1:leaf1:eth1">
          <mxCell style="rounded=0;orthogonalLoop=1;html=1;startSize=6;endArrow=classicThin;endFill=1;endSize=2;fontSize=14;strokeColor=#98A2AE;fontColor=#FFFFFF;textOpacity=60;labelBackgroundColor=#4D5766;jumpStyle=gap;strokeWidth=3;" parent="1" source="client1:eth1:leaf1:eth1" target="mid:client1:eth1:leaf1:eth1" edge="1">
            <mxGeometry relative="1" as="geometry" />
          </mxCell>
        </object>
        <object label="" source="leaf1:eth1:client1:eth1" target="mid:client1:eth1:leaf1:eth1" id="link_id:leaf1:eth1:client1:eth1">
          <mxCell style="rounded=0;orthogonalLoop=1;html=1;startSize=6;endArrow=classicThin;endFill=1;endSize=2;fontSize=14;strokeColor=#98A2AE;fontColor=#FFFFFF;textOpacity=60;labelBackgroundColor=#4D5766;jumpStyle=gap;strokeWidth=3;" parent="1" source="leaf1:eth1:client1:eth1" target="mid:client1:eth1:leaf1:eth1" edge="1">
            <mxGeometry relative="1" as="geometry" />
          </mxCell>
        </object>
        <object label="​" id="mid:client2:eth1:leaf2:eth1">
          <mxCell style="ellipse;whiteSpace=wrap;html=1;aspect=fixed;fontColor=#FFFFFF;fontSize=6;fillColor=#BEC8D2;strokeColor=none;noLabel=1;" parent="1" vertex="1">
            <mxGeometry x="426.22236419866294" y="118.9970393894574" width="4" height="4" as="geometry" />
          </mxCell>
        </object>
        <object label="" source="client2:eth1:leaf2:eth1" target="mid:client2:eth1:leaf2:eth1" id="link_id:client2:eth1:leaf2:eth1">
          <mxCell style="rounded=0;orthogonalLoop=1;html=1;startSize=6;endArrow=classicThin;endFill=1;endSize=2;fontSize=14;strokeColor=#98A2AE;fontColor=#FFFFFF;textOpacity=60;labelBackgroundColor=#4D5766;jumpStyle=gap;strokeWidth=3;" parent="1" source="client2:eth1:leaf2:eth1" target="mid:client2:eth1:leaf2:eth1" edge="1">
            <mxGeometry relative="1" as="geometry" />
          </mxCell>
        </object>
        <object label="" source="leaf2:eth1:client2:eth1" target="mid:client2:eth1:leaf2:eth1" id="link_id:leaf2:eth1:client2:eth1">
          <mxCell style="rounded=0;orthogonalLoop=1;html=1;startSize=6;endArrow=classicThin;endFill=1;endSize=2;fontSize=14;strokeColor=#98A2AE;fontColor=#FFFFFF;textOpacity=60;labelBackgroundColor=#4D5766;jumpStyle=gap;strokeWidth=3;" parent="1" source="leaf2:eth1:client2:eth1" target="mid:client2:eth1:leaf2:eth1" edge="1">
            <mxGeometry relative="1" as="geometry" />
          </mxCell>
        </object>
        <object label="​" id="mid:client3:eth1:leaf3:eth1">
          <mxCell style="ellipse;whiteSpace=wrap;html=1;aspect=fixed;fontColor=#FFFFFF;fontSize=6;fillColor=#BEC8D2;strokeColor=none;noLabel=1;" parent="1" vertex="1">
            <mxGeometry x="663.5049175462445" y="118.99291996476603" width="4" height="4" as="geometry" />
          </mxCell>
        </object>
        <object label="" source="client3:eth1:leaf3:eth1" target="mid:client3:eth1:leaf3:eth1" id="link_id:client3:eth1:leaf3:eth1">
          <mxCell style="rounded=0;orthogonalLoop=1;html=1;startSize=6;endArrow=classicThin;endFill=1;endSize=2;fontSize=14;strokeColor=#98A2AE;fontColor=#FFFFFF;textOpacity=60;labelBackgroundColor=#4D5766;jumpStyle=gap;strokeWidth=3;" parent="1" source="client3:eth1:leaf3:eth1" target="mid:client3:eth1:leaf3:eth1" edge="1">
            <mxGeometry relative="1" as="geometry" />
          </mxCell>
        </object>
        <object label="" source="leaf3:eth1:client3:eth1" target="mid:client3:eth1:leaf3:eth1" id="link_id:leaf3:eth1:client3:eth1">
          <mxCell style="rounded=0;orthogonalLoop=1;html=1;startSize=6;endArrow=classicThin;endFill=1;endSize=2;fontSize=14;strokeColor=#98A2AE;fontColor=#FFFFFF;textOpacity=60;labelBackgroundColor=#4D5766;jumpStyle=gap;strokeWidth=3;" parent="1" source="leaf3:eth1:client3:eth1" target="mid:client3:eth1:leaf3:eth1" edge="1">
            <mxGeometry relative="1" as="geometry" />
          </mxCell>
        </object>
        <mxCell id="group-spine1" value="" style="group" parent="1" vertex="1" connectable="0">
          <mxGeometry x="255" y="-320" width="75" height="81" as="geometry" />
        </mxCell>
        <object label="" id="spine1">
          <mxCell style="shape=image;imageAlign=center;imageVerticalAlign=middle;labelPosition=left;align=right;verticalLabelPosition=top;spacingLeft=0;verticalAlign=bottom;spacingTop=0;spacing=0;editableCssRules=\.st[0-2]$;labelBackgroundColor=none;aspect=fixed;imageAspect=0;image=data:image/svg+xml,PHN2ZyB4bWxuczp4bGluaz0iaHR0cDovL3d3dy53My5vcmcvMTk5OS94bGluayIgeG1sbnM9Imh0dHA6Ly93d3cudzMub3JnLzIwMDAvc3ZnIiB4bWw6c3BhY2U9InByZXNlcnZlIiBzdHlsZT0iZW5hYmxlLWJhY2tncm91bmQ6bmV3IDAgMCAxMjAgMTIwO2VkaXRhYmxlQ3NzUnVsZXM9Lio7IiB2aWV3Qm94PSIwIDAgMTIwIDEyMCIgeT0iMHB4IiB4PSIwcHgiIGlkPSJMYXllcl8xIiB2ZXJzaW9uPSIxLjEiPiYjeGE7PHN0eWxlIHR5cGU9InRleHQvY3NzIj4mI3hhOwkuc3Qwe2ZpbGw6IzAwMTEzNTt9JiN4YTsJLnN0MXtmaWxsOm5vbmU7c3Ryb2tlOiNGRkZGRkY7c3Ryb2tlLXdpZHRoOjQ7c3Ryb2tlLWxpbmVjYXA6cm91bmQ7c3Ryb2tlLWxpbmVqb2luOnJvdW5kO3N0cm9rZS1taXRlcmxpbWl0OjEwO30mI3hhOwkuc3Qye2ZpbGw6I0ZGRkZGRjt9JiN4YTsJLnN0M3tmaWxsOm5vbmU7c3Ryb2tlOiNGRkZGRkY7c3Ryb2tlLXdpZHRoOjQ7c3Ryb2tlLW1pdGVybGltaXQ6MTA7fSYjeGE7CS5zdDR7ZmlsbDpub25lO3N0cm9rZTojRkZGRkZGO3N0cm9rZS13aWR0aDo0O3N0cm9rZS1saW5lY2FwOnJvdW5kO3N0cm9rZS1saW5lam9pbjpyb3VuZDt9JiN4YTsJLnN0NXtmaWxsOiNGRkZGRkY7c3Ryb2tlOiNGRkZGRkY7c3Ryb2tlLXdpZHRoOjQ7c3Ryb2tlLWxpbmVjYXA6cm91bmQ7c3Ryb2tlLWxpbmVqb2luOnJvdW5kO3N0cm9rZS1taXRlcmxpbWl0OjEwO30mI3hhOwkuc3Q2e2ZpbGw6bm9uZTtzdHJva2U6I0ZGRkZGRjtzdHJva2Utd2lkdGg6NC4yMzMzO3N0cm9rZS1saW5lY2FwOnJvdW5kO3N0cm9rZS1saW5lam9pbjpyb3VuZDtzdHJva2UtbWl0ZXJsaW1pdDoxMDt9JiN4YTsJLnN0N3tmaWxsOm5vbmU7c3Ryb2tlOiNGRkZGRkY7c3Ryb2tlLXdpZHRoOjQ7c3Ryb2tlLWxpbmVjYXA6cm91bmQ7c3Ryb2tlLW1pdGVybGltaXQ6MTA7fSYjeGE7CS5zdDh7ZmlsbDojRkZGRkZGO3N0cm9rZTojRkZGRkZGO3N0cm9rZS13aWR0aDo0O3N0cm9rZS1taXRlcmxpbWl0OjEwO30mI3hhOwkuc3Q5e2ZpbGw6I0ZGRkZGRjtzdHJva2U6I0ZGRkZGRjtzdHJva2Utd2lkdGg6NDt9JiN4YTsJLnN0MTB7ZmlsbDpub25lO3N0cm9rZTojRkZGRkZGO3N0cm9rZS13aWR0aDo0O30mI3hhOwkuc3QxMXtmaWxsOiMyNjI2MjY7c3Ryb2tlOiNGRkZGRkY7c3Ryb2tlLXdpZHRoOjQuMjMzMzt9JiN4YTsJLnN0MTJ7ZmlsbC1ydWxlOmV2ZW5vZGQ7Y2xpcC1ydWxlOmV2ZW5vZGQ7ZmlsbDpub25lO3N0cm9rZTojRkZGRkZGO3N0cm9rZS13aWR0aDo0O3N0cm9rZS1taXRlcmxpbWl0OjEwO30mI3hhOwkuc3QxM3tmaWxsLXJ1bGU6ZXZlbm9kZDtjbGlwLXJ1bGU6ZXZlbm9kZDtmaWxsOiNGRkZGRkY7c3Ryb2tlOiNGRkZGRkY7c3Ryb2tlLXdpZHRoOjQ7fSYjeGE7CS5zdDE0e2ZpbGw6bm9uZTtzdHJva2U6I0ZGRkZGRjtzdHJva2Utd2lkdGg6NC4yMzMzO3N0cm9rZS1saW5lY2FwOnJvdW5kO3N0cm9rZS1saW5lam9pbjpyb3VuZDt9JiN4YTsJLnN0MTV7ZmlsbDpub25lO3N0cm9rZTojRkZGRkZGO3N0cm9rZS13aWR0aDo0O3N0cm9rZS1saW5lY2FwOnJvdW5kO30mI3hhOwkuc3QxNntmaWxsOiNGRkZGRkY7c3Ryb2tlOiNGRkZGRkY7c3Ryb2tlLW1pdGVybGltaXQ6MTA7fSYjeGE7CS5zdDE3e2ZpbGw6IzI2MjYyNjtzdHJva2U6I0ZGRkZGRjtzdHJva2Utd2lkdGg6NDtzdHJva2UtbWl0ZXJsaW1pdDoxMDt9JiN4YTsJLnN0MTh7ZmlsbDojRkZGRkZGO3N0cm9rZTojRkZGRkZGO3N0cm9rZS13aWR0aDo0O3N0cm9rZS1saW5lY2FwOnJvdW5kO3N0cm9rZS1saW5lam9pbjpyb3VuZDt9JiN4YTs8L3N0eWxlPiYjeGE7PHJlY3QgaGVpZ2h0PSIxMjAiIHdpZHRoPSIxMjAiIGNsYXNzPSJzdDAiLz4mI3hhOzxnPiYjeGE7CTxnPiYjeGE7CQk8cGF0aCBkPSJNNzEuNywxOS43VjQ4aDI4IiBjbGFzcz0ic3QxIi8+JiN4YTsJCTxwYXRoIGQ9Ik05MS4yLDM4LjVsNy41LDcuNmMxLjMsMS4zLDEuMywzLjEsMCw0LjNMOTEuMSw1OCIgY2xhc3M9InN0MSIvPiYjeGE7CTwvZz4mI3hhOwk8Zz4mI3hhOwkJPHBhdGggZD0iTTIwLDQ3LjhoMjguNHYtMjgiIGNsYXNzPSJzdDEiLz4mI3hhOwkJPHBhdGggZD0iTTM4LjgsMjguM2w3LjYtNy41YzEuMy0xLjMsMy4xLTEuMyw0LjMsMGw3LjcsNy42IiBjbGFzcz0ic3QxIi8+JiN4YTsJPC9nPiYjeGE7CTxnPiYjeGE7CQk8cGF0aCBkPSJNNDgsMTAwLjNWNzJIMjAiIGNsYXNzPSJzdDEiLz4mI3hhOwkJPHBhdGggZD0iTTI4LjUsODEuNUwyMSw3My45Yy0xLjMtMS4zLTEuMy0zLjEsMC00LjNsNy42LTcuNyIgY2xhc3M9InN0MSIvPiYjeGE7CTwvZz4mI3hhOwk8Zz4mI3hhOwkJPHBhdGggZD0iTTEwMCw3MS45SDcxLjZ2MjgiIGNsYXNzPSJzdDEiLz4mI3hhOwkJPHBhdGggZD0iTTgxLjIsOTEuNGwtNy42LDcuNWMtMS4zLDEuMy0zLjEsMS4zLTQuMywwbC03LjctNy42IiBjbGFzcz0ic3QxIi8+JiN4YTsJPC9nPiYjeGE7PC9nPiYjeGE7PC9zdmc+;" parent="group-spine1" vertex="1">
            <mxGeometry width="75" height="75" as="geometry" />
          </mxCell>
        </object>
        <object label="1" id="spine1:e1-1:leaf1:eth2">
          <mxCell style="ellipse;whiteSpace=wrap;html=1;aspect=fixed;fontColor=#FFFFFF;fontSize=8;strokeColor=#98A2AE;fillColor=#BEC8D2;" parent="group-spine1" vertex="1">
            <mxGeometry x="12.75" y="69" width="12" height="12" as="geometry" />
          </mxCell>
        </object>
        <object label="2" id="spine1:e1-2:leaf2:eth2">
          <mxCell style="ellipse;whiteSpace=wrap;html=1;aspect=fixed;fontColor=#FFFFFF;fontSize=8;strokeColor=#98A2AE;fillColor=#BEC8D2;" parent="group-spine1" vertex="1">
            <mxGeometry x="31.5" y="69" width="12" height="12" as="geometry" />
          </mxCell>
        </object>
        <object label="3" id="spine1:e1-3:leaf3:eth2">
          <mxCell style="ellipse;whiteSpace=wrap;html=1;aspect=fixed;fontColor=#FFFFFF;fontSize=8;strokeColor=#98A2AE;fillColor=#BEC8D2;" parent="group-spine1" vertex="1">
            <mxGeometry x="50.25" y="69" width="12" height="12" as="geometry" />
          </mxCell>
        </object>
        <mxCell id="group-leaf1" value="" style="group" parent="1" vertex="1" connectable="0">
          <mxGeometry x="138.25" y="-25" width="75" height="81" as="geometry" />
        </mxCell>
        <object label="" id="leaf1">
          <mxCell style="shape=image;imageAlign=center;imageVerticalAlign=middle;labelPosition=left;align=right;verticalLabelPosition=top;spacingLeft=0;verticalAlign=bottom;spacingTop=0;spacing=0;editableCssRules=\.st[0-2]$;labelBackgroundColor=none;aspect=fixed;imageAspect=0;image=data:image/svg+xml,PHN2ZyB4bWxuczp4bGluaz0iaHR0cDovL3d3dy53My5vcmcvMTk5OS94bGluayIgeG1sbnM9Imh0dHA6Ly93d3cudzMub3JnLzIwMDAvc3ZnIiB4bWw6c3BhY2U9InByZXNlcnZlIiBzdHlsZT0iZW5hYmxlLWJhY2tncm91bmQ6bmV3IDAgMCAxMjAgMTIwO2VkaXRhYmxlQ3NzUnVsZXM9Lio7IiB2aWV3Qm94PSIwIDAgMTIwIDEyMCIgeT0iMHB4IiB4PSIwcHgiIGlkPSJMYXllcl8xIiB2ZXJzaW9uPSIxLjEiPiYjeGE7PHN0eWxlIHR5cGU9InRleHQvY3NzIj4mI3hhOwkuc3Qwe2ZpbGw6IzAwMTEzNTt9JiN4YTsJLnN0MXtmaWxsOm5vbmU7c3Ryb2tlOiNGRkZGRkY7c3Ryb2tlLXdpZHRoOjQ7c3Ryb2tlLWxpbmVjYXA6cm91bmQ7c3Ryb2tlLWxpbmVqb2luOnJvdW5kO3N0cm9rZS1taXRlcmxpbWl0OjEwO30mI3hhOwkuc3Qye2ZpbGw6I0ZGRkZGRjt9JiN4YTsJLnN0M3tmaWxsOm5vbmU7c3Ryb2tlOiNGRkZGRkY7c3Ryb2tlLXdpZHRoOjQ7c3Ryb2tlLW1pdGVybGltaXQ6MTA7fSYjeGE7CS5zdDR7ZmlsbDpub25lO3N0cm9rZTojRkZGRkZGO3N0cm9rZS13aWR0aDo0O3N0cm9rZS1saW5lY2FwOnJvdW5kO3N0cm9rZS1saW5lam9pbjpyb3VuZDt9JiN4YTsJLnN0NXtmaWxsOiNGRkZGRkY7c3Ryb2tlOiNGRkZGRkY7c3Ryb2tlLXdpZHRoOjQ7c3Ryb2tlLWxpbmVjYXA6cm91bmQ7c3Ryb2tlLWxpbmVqb2luOnJvdW5kO3N0cm9rZS1taXRlcmxpbWl0OjEwO30mI3hhOwkuc3Q2e2ZpbGw6bm9uZTtzdHJva2U6I0ZGRkZGRjtzdHJva2Utd2lkdGg6NC4yMzMzO3N0cm9rZS1saW5lY2FwOnJvdW5kO3N0cm9rZS1saW5lam9pbjpyb3VuZDtzdHJva2UtbWl0ZXJsaW1pdDoxMDt9JiN4YTsJLnN0N3tmaWxsOm5vbmU7c3Ryb2tlOiNGRkZGRkY7c3Ryb2tlLXdpZHRoOjQ7c3Ryb2tlLWxpbmVjYXA6cm91bmQ7c3Ryb2tlLW1pdGVybGltaXQ6MTA7fSYjeGE7CS5zdDh7ZmlsbDojRkZGRkZGO3N0cm9rZTojRkZGRkZGO3N0cm9rZS13aWR0aDo0O3N0cm9rZS1taXRlcmxpbWl0OjEwO30mI3hhOwkuc3Q5e2ZpbGw6I0ZGRkZGRjtzdHJva2U6I0ZGRkZGRjtzdHJva2Utd2lkdGg6NDt9JiN4YTsJLnN0MTB7ZmlsbDpub25lO3N0cm9rZTojRkZGRkZGO3N0cm9rZS13aWR0aDo0O30mI3hhOwkuc3QxMXtmaWxsOiMyNjI2MjY7c3Ryb2tlOiNGRkZGRkY7c3Ryb2tlLXdpZHRoOjQuMjMzMzt9JiN4YTsJLnN0MTJ7ZmlsbC1ydWxlOmV2ZW5vZGQ7Y2xpcC1ydWxlOmV2ZW5vZGQ7ZmlsbDpub25lO3N0cm9rZTojRkZGRkZGO3N0cm9rZS13aWR0aDo0O3N0cm9rZS1taXRlcmxpbWl0OjEwO30mI3hhOwkuc3QxM3tmaWxsLXJ1bGU6ZXZlbm9kZDtjbGlwLXJ1bGU6ZXZlbm9kZDtmaWxsOiNGRkZGRkY7c3Ryb2tlOiNGRkZGRkY7c3Ryb2tlLXdpZHRoOjQ7fSYjeGE7CS5zdDE0e2ZpbGw6bm9uZTtzdHJva2U6I0ZGRkZGRjtzdHJva2Utd2lkdGg6NC4yMzMzO3N0cm9rZS1saW5lY2FwOnJvdW5kO3N0cm9rZS1saW5lam9pbjpyb3VuZDt9JiN4YTsJLnN0MTV7ZmlsbDpub25lO3N0cm9rZTojRkZGRkZGO3N0cm9rZS13aWR0aDo0O3N0cm9rZS1saW5lY2FwOnJvdW5kO30mI3hhOwkuc3QxNntmaWxsOiNGRkZGRkY7c3Ryb2tlOiNGRkZGRkY7c3Ryb2tlLW1pdGVybGltaXQ6MTA7fSYjeGE7CS5zdDE3e2ZpbGw6IzI2MjYyNjtzdHJva2U6I0ZGRkZGRjtzdHJva2Utd2lkdGg6NDtzdHJva2UtbWl0ZXJsaW1pdDoxMDt9JiN4YTsJLnN0MTh7ZmlsbDojRkZGRkZGO3N0cm9rZTojRkZGRkZGO3N0cm9rZS13aWR0aDo0O3N0cm9rZS1saW5lY2FwOnJvdW5kO3N0cm9rZS1saW5lam9pbjpyb3VuZDt9JiN4YTs8L3N0eWxlPiYjeGE7PHJlY3QgaGVpZ2h0PSIxMjAiIHdpZHRoPSIxMjAiIGNsYXNzPSJzdDAiLz4mI3hhOzxnPiYjeGE7CTxnPiYjeGE7CQk8cGF0aCBkPSJNNzEuNywxOS43VjQ4aDI4IiBjbGFzcz0ic3QxIi8+JiN4YTsJCTxwYXRoIGQ9Ik05MS4yLDM4LjVsNy41LDcuNmMxLjMsMS4zLDEuMywzLjEsMCw0LjNMOTEuMSw1OCIgY2xhc3M9InN0MSIvPiYjeGE7CTwvZz4mI3hhOwk8Zz4mI3hhOwkJPHBhdGggZD0iTTIwLDQ3LjhoMjguNHYtMjgiIGNsYXNzPSJzdDEiLz4mI3hhOwkJPHBhdGggZD0iTTM4LjgsMjguM2w3LjYtNy41YzEuMy0xLjMsMy4xLTEuMyw0LjMsMGw3LjcsNy42IiBjbGFzcz0ic3QxIi8+JiN4YTsJPC9nPiYjeGE7CTxnPiYjeGE7CQk8cGF0aCBkPSJNNDgsMTAwLjNWNzJIMjAiIGNsYXNzPSJzdDEiLz4mI3hhOwkJPHBhdGggZD0iTTI4LjUsODEuNUwyMSw3My45Yy0xLjMtMS4zLTEuMy0zLjEsMC00LjNsNy42LTcuNyIgY2xhc3M9InN0MSIvPiYjeGE7CTwvZz4mI3hhOwk8Zz4mI3hhOwkJPHBhdGggZD0iTTEwMCw3MS45SDcxLjZ2MjgiIGNsYXNzPSJzdDEiLz4mI3hhOwkJPHBhdGggZD0iTTgxLjIsOTEuNGwtNy42LDcuNWMtMS4zLDEuMy0zLjEsMS4zLTQuMywwbC03LjctNy42IiBjbGFzcz0ic3QxIi8+JiN4YTsJPC9nPiYjeGE7PC9nPiYjeGE7PC9zdmc+;" parent="group-leaf1" vertex="1">
            <mxGeometry y="6" width="75" height="75" as="geometry" />
          </mxCell>
        </object>
        <object label="2" id="leaf1:eth2:spine1:e1-1">
          <mxCell style="ellipse;whiteSpace=wrap;html=1;aspect=fixed;fontColor=#FFFFFF;fontSize=8;strokeColor=#98A2AE;fillColor=#BEC8D2;" parent="group-leaf1" vertex="1">
            <mxGeometry x="19.5" width="12" height="12" as="geometry" />
          </mxCell>
        </object>
        <object label="3" id="leaf1:eth3:spine2:e1-1">
          <mxCell style="ellipse;whiteSpace=wrap;html=1;aspect=fixed;fontColor=#FFFFFF;fontSize=8;strokeColor=#98A2AE;fillColor=#BEC8D2;" parent="group-leaf1" vertex="1">
            <mxGeometry x="44.25" width="12" height="12" as="geometry" />
          </mxCell>
        </object>
        <object label="1" id="leaf1:eth1:client1:eth1">
          <mxCell style="ellipse;whiteSpace=wrap;html=1;aspect=fixed;fontColor=#FFFFFF;fontSize=8;strokeColor=#98A2AE;fillColor=#BEC8D2;" parent="group-leaf1" vertex="1">
            <mxGeometry x="30.75" y="75" width="12" height="12" as="geometry" />
          </mxCell>
        </object>
        <mxCell id="group-leaf2" value="" style="group" parent="1" vertex="1" connectable="0">
          <mxGeometry x="390.72" y="-25" width="75" height="81" as="geometry" />
        </mxCell>
        <object label="" id="leaf2">
          <mxCell style="shape=image;imageAlign=center;imageVerticalAlign=middle;labelPosition=left;align=right;verticalLabelPosition=top;spacingLeft=0;verticalAlign=bottom;spacingTop=0;spacing=0;editableCssRules=\.st[0-2]$;labelBackgroundColor=none;aspect=fixed;imageAspect=0;image=data:image/svg+xml,PHN2ZyB4bWxuczp4bGluaz0iaHR0cDovL3d3dy53My5vcmcvMTk5OS94bGluayIgeG1sbnM9Imh0dHA6Ly93d3cudzMub3JnLzIwMDAvc3ZnIiB4bWw6c3BhY2U9InByZXNlcnZlIiBzdHlsZT0iZW5hYmxlLWJhY2tncm91bmQ6bmV3IDAgMCAxMjAgMTIwO2VkaXRhYmxlQ3NzUnVsZXM9Lio7IiB2aWV3Qm94PSIwIDAgMTIwIDEyMCIgeT0iMHB4IiB4PSIwcHgiIGlkPSJMYXllcl8xIiB2ZXJzaW9uPSIxLjEiPiYjeGE7PHN0eWxlIHR5cGU9InRleHQvY3NzIj4mI3hhOwkuc3Qwe2ZpbGw6IzAwMTEzNTt9JiN4YTsJLnN0MXtmaWxsOm5vbmU7c3Ryb2tlOiNGRkZGRkY7c3Ryb2tlLXdpZHRoOjQ7c3Ryb2tlLWxpbmVjYXA6cm91bmQ7c3Ryb2tlLWxpbmVqb2luOnJvdW5kO3N0cm9rZS1taXRlcmxpbWl0OjEwO30mI3hhOwkuc3Qye2ZpbGw6I0ZGRkZGRjt9JiN4YTsJLnN0M3tmaWxsOm5vbmU7c3Ryb2tlOiNGRkZGRkY7c3Ryb2tlLXdpZHRoOjQ7c3Ryb2tlLW1pdGVybGltaXQ6MTA7fSYjeGE7CS5zdDR7ZmlsbDpub25lO3N0cm9rZTojRkZGRkZGO3N0cm9rZS13aWR0aDo0O3N0cm9rZS1saW5lY2FwOnJvdW5kO3N0cm9rZS1saW5lam9pbjpyb3VuZDt9JiN4YTsJLnN0NXtmaWxsOiNGRkZGRkY7c3Ryb2tlOiNGRkZGRkY7c3Ryb2tlLXdpZHRoOjQ7c3Ryb2tlLWxpbmVjYXA6cm91bmQ7c3Ryb2tlLWxpbmVqb2luOnJvdW5kO3N0cm9rZS1taXRlcmxpbWl0OjEwO30mI3hhOwkuc3Q2e2ZpbGw6bm9uZTtzdHJva2U6I0ZGRkZGRjtzdHJva2Utd2lkdGg6NC4yMzMzO3N0cm9rZS1saW5lY2FwOnJvdW5kO3N0cm9rZS1saW5lam9pbjpyb3VuZDtzdHJva2UtbWl0ZXJsaW1pdDoxMDt9JiN4YTsJLnN0N3tmaWxsOm5vbmU7c3Ryb2tlOiNGRkZGRkY7c3Ryb2tlLXdpZHRoOjQ7c3Ryb2tlLWxpbmVjYXA6cm91bmQ7c3Ryb2tlLW1pdGVybGltaXQ6MTA7fSYjeGE7CS5zdDh7ZmlsbDojRkZGRkZGO3N0cm9rZTojRkZGRkZGO3N0cm9rZS13aWR0aDo0O3N0cm9rZS1taXRlcmxpbWl0OjEwO30mI3hhOwkuc3Q5e2ZpbGw6I0ZGRkZGRjtzdHJva2U6I0ZGRkZGRjtzdHJva2Utd2lkdGg6NDt9JiN4YTsJLnN0MTB7ZmlsbDpub25lO3N0cm9rZTojRkZGRkZGO3N0cm9rZS13aWR0aDo0O30mI3hhOwkuc3QxMXtmaWxsOiMyNjI2MjY7c3Ryb2tlOiNGRkZGRkY7c3Ryb2tlLXdpZHRoOjQuMjMzMzt9JiN4YTsJLnN0MTJ7ZmlsbC1ydWxlOmV2ZW5vZGQ7Y2xpcC1ydWxlOmV2ZW5vZGQ7ZmlsbDpub25lO3N0cm9rZTojRkZGRkZGO3N0cm9rZS13aWR0aDo0O3N0cm9rZS1taXRlcmxpbWl0OjEwO30mI3hhOwkuc3QxM3tmaWxsLXJ1bGU6ZXZlbm9kZDtjbGlwLXJ1bGU6ZXZlbm9kZDtmaWxsOiNGRkZGRkY7c3Ryb2tlOiNGRkZGRkY7c3Ryb2tlLXdpZHRoOjQ7fSYjeGE7CS5zdDE0e2ZpbGw6bm9uZTtzdHJva2U6I0ZGRkZGRjtzdHJva2Utd2lkdGg6NC4yMzMzO3N0cm9rZS1saW5lY2FwOnJvdW5kO3N0cm9rZS1saW5lam9pbjpyb3VuZDt9JiN4YTsJLnN0MTV7ZmlsbDpub25lO3N0cm9rZTojRkZGRkZGO3N0cm9rZS13aWR0aDo0O3N0cm9rZS1saW5lY2FwOnJvdW5kO30mI3hhOwkuc3QxNntmaWxsOiNGRkZGRkY7c3Ryb2tlOiNGRkZGRkY7c3Ryb2tlLW1pdGVybGltaXQ6MTA7fSYjeGE7CS5zdDE3e2ZpbGw6IzI2MjYyNjtzdHJva2U6I0ZGRkZGRjtzdHJva2Utd2lkdGg6NDtzdHJva2UtbWl0ZXJsaW1pdDoxMDt9JiN4YTsJLnN0MTh7ZmlsbDojRkZGRkZGO3N0cm9rZTojRkZGRkZGO3N0cm9rZS13aWR0aDo0O3N0cm9rZS1saW5lY2FwOnJvdW5kO3N0cm9rZS1saW5lam9pbjpyb3VuZDt9JiN4YTs8L3N0eWxlPiYjeGE7PHJlY3QgaGVpZ2h0PSIxMjAiIHdpZHRoPSIxMjAiIGNsYXNzPSJzdDAiLz4mI3hhOzxnPiYjeGE7CTxnPiYjeGE7CQk8cGF0aCBkPSJNNzEuNywxOS43VjQ4aDI4IiBjbGFzcz0ic3QxIi8+JiN4YTsJCTxwYXRoIGQ9Ik05MS4yLDM4LjVsNy41LDcuNmMxLjMsMS4zLDEuMywzLjEsMCw0LjNMOTEuMSw1OCIgY2xhc3M9InN0MSIvPiYjeGE7CTwvZz4mI3hhOwk8Zz4mI3hhOwkJPHBhdGggZD0iTTIwLDQ3LjhoMjguNHYtMjgiIGNsYXNzPSJzdDEiLz4mI3hhOwkJPHBhdGggZD0iTTM4LjgsMjguM2w3LjYtNy41YzEuMy0xLjMsMy4xLTEuMyw0LjMsMGw3LjcsNy42IiBjbGFzcz0ic3QxIi8+JiN4YTsJPC9nPiYjeGE7CTxnPiYjeGE7CQk8cGF0aCBkPSJNNDgsMTAwLjNWNzJIMjAiIGNsYXNzPSJzdDEiLz4mI3hhOwkJPHBhdGggZD0iTTI4LjUsODEuNUwyMSw3My45Yy0xLjMtMS4zLTEuMy0zLjEsMC00LjNsNy42LTcuNyIgY2xhc3M9InN0MSIvPiYjeGE7CTwvZz4mI3hhOwk8Zz4mI3hhOwkJPHBhdGggZD0iTTEwMCw3MS45SDcxLjZ2MjgiIGNsYXNzPSJzdDEiLz4mI3hhOwkJPHBhdGggZD0iTTgxLjIsOTEuNGwtNy42LDcuNWMtMS4zLDEuMy0zLjEsMS4zLTQuMywwbC03LjctNy42IiBjbGFzcz0ic3QxIi8+JiN4YTsJPC9nPiYjeGE7PC9nPiYjeGE7PC9zdmc+;" parent="group-leaf2" vertex="1">
            <mxGeometry y="6" width="75" height="75" as="geometry" />
          </mxCell>
        </object>
        <object label="2" id="leaf2:eth2:spine1:e1-2">
          <mxCell style="ellipse;whiteSpace=wrap;html=1;aspect=fixed;fontColor=#FFFFFF;fontSize=8;strokeColor=#98A2AE;fillColor=#BEC8D2;" parent="group-leaf2" vertex="1">
            <mxGeometry x="18.5" width="12" height="12" as="geometry" />
          </mxCell>
        </object>
        <object label="3" id="leaf2:eth3:spine2:e1-2">
          <mxCell style="ellipse;whiteSpace=wrap;html=1;aspect=fixed;fontColor=#FFFFFF;fontSize=8;strokeColor=#98A2AE;fillColor=#BEC8D2;" parent="group-leaf2" vertex="1">
            <mxGeometry x="43.25" width="12" height="12" as="geometry" />
          </mxCell>
        </object>
        <object label="1" id="leaf2:eth1:client2:eth1">
          <mxCell style="ellipse;whiteSpace=wrap;html=1;aspect=fixed;fontColor=#FFFFFF;fontSize=8;strokeColor=#98A2AE;fillColor=#BEC8D2;" parent="group-leaf2" vertex="1">
            <mxGeometry x="31.75" y="74" width="12" height="12" as="geometry" />
          </mxCell>
        </object>
        <mxCell id="group-leaf3" value="" style="group" parent="1" vertex="1" connectable="0">
          <mxGeometry x="628" y="-25" width="75" height="81" as="geometry" />
        </mxCell>
        <object label="" id="leaf3">
          <mxCell style="shape=image;imageAlign=center;imageVerticalAlign=middle;labelPosition=left;align=right;verticalLabelPosition=top;spacingLeft=0;verticalAlign=bottom;spacingTop=0;spacing=0;editableCssRules=\.st[0-2]$;labelBackgroundColor=none;aspect=fixed;imageAspect=0;image=data:image/svg+xml,PHN2ZyB4bWxuczp4bGluaz0iaHR0cDovL3d3dy53My5vcmcvMTk5OS94bGluayIgeG1sbnM9Imh0dHA6Ly93d3cudzMub3JnLzIwMDAvc3ZnIiB4bWw6c3BhY2U9InByZXNlcnZlIiBzdHlsZT0iZW5hYmxlLWJhY2tncm91bmQ6bmV3IDAgMCAxMjAgMTIwO2VkaXRhYmxlQ3NzUnVsZXM9Lio7IiB2aWV3Qm94PSIwIDAgMTIwIDEyMCIgeT0iMHB4IiB4PSIwcHgiIGlkPSJMYXllcl8xIiB2ZXJzaW9uPSIxLjEiPiYjeGE7PHN0eWxlIHR5cGU9InRleHQvY3NzIj4mI3hhOwkuc3Qwe2ZpbGw6IzAwMTEzNTt9JiN4YTsJLnN0MXtmaWxsOm5vbmU7c3Ryb2tlOiNGRkZGRkY7c3Ryb2tlLXdpZHRoOjQ7c3Ryb2tlLWxpbmVjYXA6cm91bmQ7c3Ryb2tlLWxpbmVqb2luOnJvdW5kO3N0cm9rZS1taXRlcmxpbWl0OjEwO30mI3hhOwkuc3Qye2ZpbGw6I0ZGRkZGRjt9JiN4YTsJLnN0M3tmaWxsOm5vbmU7c3Ryb2tlOiNGRkZGRkY7c3Ryb2tlLXdpZHRoOjQ7c3Ryb2tlLW1pdGVybGltaXQ6MTA7fSYjeGE7CS5zdDR7ZmlsbDpub25lO3N0cm9rZTojRkZGRkZGO3N0cm9rZS13aWR0aDo0O3N0cm9rZS1saW5lY2FwOnJvdW5kO3N0cm9rZS1saW5lam9pbjpyb3VuZDt9JiN4YTsJLnN0NXtmaWxsOiNGRkZGRkY7c3Ryb2tlOiNGRkZGRkY7c3Ryb2tlLXdpZHRoOjQ7c3Ryb2tlLWxpbmVjYXA6cm91bmQ7c3Ryb2tlLWxpbmVqb2luOnJvdW5kO3N0cm9rZS1taXRlcmxpbWl0OjEwO30mI3hhOwkuc3Q2e2ZpbGw6bm9uZTtzdHJva2U6I0ZGRkZGRjtzdHJva2Utd2lkdGg6NC4yMzMzO3N0cm9rZS1saW5lY2FwOnJvdW5kO3N0cm9rZS1saW5lam9pbjpyb3VuZDtzdHJva2UtbWl0ZXJsaW1pdDoxMDt9JiN4YTsJLnN0N3tmaWxsOm5vbmU7c3Ryb2tlOiNGRkZGRkY7c3Ryb2tlLXdpZHRoOjQ7c3Ryb2tlLWxpbmVjYXA6cm91bmQ7c3Ryb2tlLW1pdGVybGltaXQ6MTA7fSYjeGE7CS5zdDh7ZmlsbDojRkZGRkZGO3N0cm9rZTojRkZGRkZGO3N0cm9rZS13aWR0aDo0O3N0cm9rZS1taXRlcmxpbWl0OjEwO30mI3hhOwkuc3Q5e2ZpbGw6I0ZGRkZGRjtzdHJva2U6I0ZGRkZGRjtzdHJva2Utd2lkdGg6NDt9JiN4YTsJLnN0MTB7ZmlsbDpub25lO3N0cm9rZTojRkZGRkZGO3N0cm9rZS13aWR0aDo0O30mI3hhOwkuc3QxMXtmaWxsOiMyNjI2MjY7c3Ryb2tlOiNGRkZGRkY7c3Ryb2tlLXdpZHRoOjQuMjMzMzt9JiN4YTsJLnN0MTJ7ZmlsbC1ydWxlOmV2ZW5vZGQ7Y2xpcC1ydWxlOmV2ZW5vZGQ7ZmlsbDpub25lO3N0cm9rZTojRkZGRkZGO3N0cm9rZS13aWR0aDo0O3N0cm9rZS1taXRlcmxpbWl0OjEwO30mI3hhOwkuc3QxM3tmaWxsLXJ1bGU6ZXZlbm9kZDtjbGlwLXJ1bGU6ZXZlbm9kZDtmaWxsOiNGRkZGRkY7c3Ryb2tlOiNGRkZGRkY7c3Ryb2tlLXdpZHRoOjQ7fSYjeGE7CS5zdDE0e2ZpbGw6bm9uZTtzdHJva2U6I0ZGRkZGRjtzdHJva2Utd2lkdGg6NC4yMzMzO3N0cm9rZS1saW5lY2FwOnJvdW5kO3N0cm9rZS1saW5lam9pbjpyb3VuZDt9JiN4YTsJLnN0MTV7ZmlsbDpub25lO3N0cm9rZTojRkZGRkZGO3N0cm9rZS13aWR0aDo0O3N0cm9rZS1saW5lY2FwOnJvdW5kO30mI3hhOwkuc3QxNntmaWxsOiNGRkZGRkY7c3Ryb2tlOiNGRkZGRkY7c3Ryb2tlLW1pdGVybGltaXQ6MTA7fSYjeGE7CS5zdDE3e2ZpbGw6IzI2MjYyNjtzdHJva2U6I0ZGRkZGRjtzdHJva2Utd2lkdGg6NDtzdHJva2UtbWl0ZXJsaW1pdDoxMDt9JiN4YTsJLnN0MTh7ZmlsbDojRkZGRkZGO3N0cm9rZTojRkZGRkZGO3N0cm9rZS13aWR0aDo0O3N0cm9rZS1saW5lY2FwOnJvdW5kO3N0cm9rZS1saW5lam9pbjpyb3VuZDt9JiN4YTs8L3N0eWxlPiYjeGE7PHJlY3QgaGVpZ2h0PSIxMjAiIHdpZHRoPSIxMjAiIGNsYXNzPSJzdDAiLz4mI3hhOzxnPiYjeGE7CTxnPiYjeGE7CQk8cGF0aCBkPSJNNzEuNywxOS43VjQ4aDI4IiBjbGFzcz0ic3QxIi8+JiN4YTsJCTxwYXRoIGQ9Ik05MS4yLDM4LjVsNy41LDcuNmMxLjMsMS4zLDEuMywzLjEsMCw0LjNMOTEuMSw1OCIgY2xhc3M9InN0MSIvPiYjeGE7CTwvZz4mI3hhOwk8Zz4mI3hhOwkJPHBhdGggZD0iTTIwLDQ3LjhoMjguNHYtMjgiIGNsYXNzPSJzdDEiLz4mI3hhOwkJPHBhdGggZD0iTTM4LjgsMjguM2w3LjYtNy41YzEuMy0xLjMsMy4xLTEuMyw0LjMsMGw3LjcsNy42IiBjbGFzcz0ic3QxIi8+JiN4YTsJPC9nPiYjeGE7CTxnPiYjeGE7CQk8cGF0aCBkPSJNNDgsMTAwLjNWNzJIMjAiIGNsYXNzPSJzdDEiLz4mI3hhOwkJPHBhdGggZD0iTTI4LjUsODEuNUwyMSw3My45Yy0xLjMtMS4zLTEuMy0zLjEsMC00LjNsNy42LTcuNyIgY2xhc3M9InN0MSIvPiYjeGE7CTwvZz4mI3hhOwk8Zz4mI3hhOwkJPHBhdGggZD0iTTEwMCw3MS45SDcxLjZ2MjgiIGNsYXNzPSJzdDEiLz4mI3hhOwkJPHBhdGggZD0iTTgxLjIsOTEuNGwtNy42LDcuNWMtMS4zLDEuMy0zLjEsMS4zLTQuMywwbC03LjctNy42IiBjbGFzcz0ic3QxIi8+JiN4YTsJPC9nPiYjeGE7PC9nPiYjeGE7PC9zdmc+;" parent="group-leaf3" vertex="1">
            <mxGeometry y="6" width="75" height="75" as="geometry" />
          </mxCell>
        </object>
        <object label="2" id="leaf3:eth2:spine1:e1-3">
          <mxCell style="ellipse;whiteSpace=wrap;html=1;aspect=fixed;fontColor=#FFFFFF;fontSize=8;strokeColor=#98A2AE;fillColor=#BEC8D2;" parent="group-leaf3" vertex="1">
            <mxGeometry x="18.75" width="12" height="12" as="geometry" />
          </mxCell>
        </object>
        <object label="3" id="leaf3:eth3:spine2:e1-3">
          <mxCell style="ellipse;whiteSpace=wrap;html=1;aspect=fixed;fontColor=#FFFFFF;fontSize=8;strokeColor=#98A2AE;fillColor=#BEC8D2;" parent="group-leaf3" vertex="1">
            <mxGeometry x="43.5" width="12" height="12" as="geometry" />
          </mxCell>
        </object>
        <object label="1" id="leaf3:eth1:client3:eth1">
          <mxCell style="ellipse;whiteSpace=wrap;html=1;aspect=fixed;fontColor=#FFFFFF;fontSize=8;strokeColor=#98A2AE;fillColor=#BEC8D2;" parent="group-leaf3" vertex="1">
            <mxGeometry x="31.25" y="74" width="12" height="12" as="geometry" />
          </mxCell>
        </object>
        <mxCell id="group-spine2" value="" style="group" parent="1" vertex="1" connectable="0">
          <mxGeometry x="499" y="-312.5" width="75" height="81" as="geometry" />
        </mxCell>
        <object label="" id="spine2">
          <mxCell style="shape=image;imageAlign=center;imageVerticalAlign=middle;labelPosition=left;align=right;verticalLabelPosition=top;spacingLeft=0;verticalAlign=bottom;spacingTop=0;spacing=0;editableCssRules=\.st[0-2]$;labelBackgroundColor=none;aspect=fixed;imageAspect=0;image=data:image/svg+xml,PHN2ZyB4bWxuczp4bGluaz0iaHR0cDovL3d3dy53My5vcmcvMTk5OS94bGluayIgeG1sbnM9Imh0dHA6Ly93d3cudzMub3JnLzIwMDAvc3ZnIiB4bWw6c3BhY2U9InByZXNlcnZlIiBzdHlsZT0iZW5hYmxlLWJhY2tncm91bmQ6bmV3IDAgMCAxMjAgMTIwO2VkaXRhYmxlQ3NzUnVsZXM9Lio7IiB2aWV3Qm94PSIwIDAgMTIwIDEyMCIgeT0iMHB4IiB4PSIwcHgiIGlkPSJMYXllcl8xIiB2ZXJzaW9uPSIxLjEiPiYjeGE7PHN0eWxlIHR5cGU9InRleHQvY3NzIj4mI3hhOwkuc3Qwe2ZpbGw6IzAwMTEzNTt9JiN4YTsJLnN0MXtmaWxsOm5vbmU7c3Ryb2tlOiNGRkZGRkY7c3Ryb2tlLXdpZHRoOjQ7c3Ryb2tlLWxpbmVjYXA6cm91bmQ7c3Ryb2tlLWxpbmVqb2luOnJvdW5kO3N0cm9rZS1taXRlcmxpbWl0OjEwO30mI3hhOwkuc3Qye2ZpbGw6I0ZGRkZGRjt9JiN4YTsJLnN0M3tmaWxsOm5vbmU7c3Ryb2tlOiNGRkZGRkY7c3Ryb2tlLXdpZHRoOjQ7c3Ryb2tlLW1pdGVybGltaXQ6MTA7fSYjeGE7CS5zdDR7ZmlsbDpub25lO3N0cm9rZTojRkZGRkZGO3N0cm9rZS13aWR0aDo0O3N0cm9rZS1saW5lY2FwOnJvdW5kO3N0cm9rZS1saW5lam9pbjpyb3VuZDt9JiN4YTsJLnN0NXtmaWxsOiNGRkZGRkY7c3Ryb2tlOiNGRkZGRkY7c3Ryb2tlLXdpZHRoOjQ7c3Ryb2tlLWxpbmVjYXA6cm91bmQ7c3Ryb2tlLWxpbmVqb2luOnJvdW5kO3N0cm9rZS1taXRlcmxpbWl0OjEwO30mI3hhOwkuc3Q2e2ZpbGw6bm9uZTtzdHJva2U6I0ZGRkZGRjtzdHJva2Utd2lkdGg6NC4yMzMzO3N0cm9rZS1saW5lY2FwOnJvdW5kO3N0cm9rZS1saW5lam9pbjpyb3VuZDtzdHJva2UtbWl0ZXJsaW1pdDoxMDt9JiN4YTsJLnN0N3tmaWxsOm5vbmU7c3Ryb2tlOiNGRkZGRkY7c3Ryb2tlLXdpZHRoOjQ7c3Ryb2tlLWxpbmVjYXA6cm91bmQ7c3Ryb2tlLW1pdGVybGltaXQ6MTA7fSYjeGE7CS5zdDh7ZmlsbDojRkZGRkZGO3N0cm9rZTojRkZGRkZGO3N0cm9rZS13aWR0aDo0O3N0cm9rZS1taXRlcmxpbWl0OjEwO30mI3hhOwkuc3Q5e2ZpbGw6I0ZGRkZGRjtzdHJva2U6I0ZGRkZGRjtzdHJva2Utd2lkdGg6NDt9JiN4YTsJLnN0MTB7ZmlsbDpub25lO3N0cm9rZTojRkZGRkZGO3N0cm9rZS13aWR0aDo0O30mI3hhOwkuc3QxMXtmaWxsOiMyNjI2MjY7c3Ryb2tlOiNGRkZGRkY7c3Ryb2tlLXdpZHRoOjQuMjMzMzt9JiN4YTsJLnN0MTJ7ZmlsbC1ydWxlOmV2ZW5vZGQ7Y2xpcC1ydWxlOmV2ZW5vZGQ7ZmlsbDpub25lO3N0cm9rZTojRkZGRkZGO3N0cm9rZS13aWR0aDo0O3N0cm9rZS1taXRlcmxpbWl0OjEwO30mI3hhOwkuc3QxM3tmaWxsLXJ1bGU6ZXZlbm9kZDtjbGlwLXJ1bGU6ZXZlbm9kZDtmaWxsOiNGRkZGRkY7c3Ryb2tlOiNGRkZGRkY7c3Ryb2tlLXdpZHRoOjQ7fSYjeGE7CS5zdDE0e2ZpbGw6bm9uZTtzdHJva2U6I0ZGRkZGRjtzdHJva2Utd2lkdGg6NC4yMzMzO3N0cm9rZS1saW5lY2FwOnJvdW5kO3N0cm9rZS1saW5lam9pbjpyb3VuZDt9JiN4YTsJLnN0MTV7ZmlsbDpub25lO3N0cm9rZTojRkZGRkZGO3N0cm9rZS13aWR0aDo0O3N0cm9rZS1saW5lY2FwOnJvdW5kO30mI3hhOwkuc3QxNntmaWxsOiNGRkZGRkY7c3Ryb2tlOiNGRkZGRkY7c3Ryb2tlLW1pdGVybGltaXQ6MTA7fSYjeGE7CS5zdDE3e2ZpbGw6IzI2MjYyNjtzdHJva2U6I0ZGRkZGRjtzdHJva2Utd2lkdGg6NDtzdHJva2UtbWl0ZXJsaW1pdDoxMDt9JiN4YTsJLnN0MTh7ZmlsbDojRkZGRkZGO3N0cm9rZTojRkZGRkZGO3N0cm9rZS13aWR0aDo0O3N0cm9rZS1saW5lY2FwOnJvdW5kO3N0cm9rZS1saW5lam9pbjpyb3VuZDt9JiN4YTs8L3N0eWxlPiYjeGE7PHJlY3QgaGVpZ2h0PSIxMjAiIHdpZHRoPSIxMjAiIGNsYXNzPSJzdDAiLz4mI3hhOzxnPiYjeGE7CTxnPiYjeGE7CQk8cGF0aCBkPSJNNzEuNywxOS43VjQ4aDI4IiBjbGFzcz0ic3QxIi8+JiN4YTsJCTxwYXRoIGQ9Ik05MS4yLDM4LjVsNy41LDcuNmMxLjMsMS4zLDEuMywzLjEsMCw0LjNMOTEuMSw1OCIgY2xhc3M9InN0MSIvPiYjeGE7CTwvZz4mI3hhOwk8Zz4mI3hhOwkJPHBhdGggZD0iTTIwLDQ3LjhoMjguNHYtMjgiIGNsYXNzPSJzdDEiLz4mI3hhOwkJPHBhdGggZD0iTTM4LjgsMjguM2w3LjYtNy41YzEuMy0xLjMsMy4xLTEuMyw0LjMsMGw3LjcsNy42IiBjbGFzcz0ic3QxIi8+JiN4YTsJPC9nPiYjeGE7CTxnPiYjeGE7CQk8cGF0aCBkPSJNNDgsMTAwLjNWNzJIMjAiIGNsYXNzPSJzdDEiLz4mI3hhOwkJPHBhdGggZD0iTTI4LjUsODEuNUwyMSw3My45Yy0xLjMtMS4zLTEuMy0zLjEsMC00LjNsNy42LTcuNyIgY2xhc3M9InN0MSIvPiYjeGE7CTwvZz4mI3hhOwk8Zz4mI3hhOwkJPHBhdGggZD0iTTEwMCw3MS45SDcxLjZ2MjgiIGNsYXNzPSJzdDEiLz4mI3hhOwkJPHBhdGggZD0iTTgxLjIsOTEuNGwtNy42LDcuNWMtMS4zLDEuMy0zLjEsMS4zLTQuMywwbC03LjctNy42IiBjbGFzcz0ic3QxIi8+JiN4YTsJPC9nPiYjeGE7PC9nPiYjeGE7PC9zdmc+;" parent="group-spine2" vertex="1">
            <mxGeometry width="75" height="75" as="geometry" />
          </mxCell>
        </object>
        <object label="1" id="spine2:e1-1:leaf1:eth3">
          <mxCell style="ellipse;whiteSpace=wrap;html=1;aspect=fixed;fontColor=#FFFFFF;fontSize=8;strokeColor=#98A2AE;fillColor=#BEC8D2;" parent="group-spine2" vertex="1">
            <mxGeometry x="12.75" y="69" width="12" height="12" as="geometry" />
          </mxCell>
        </object>
        <object label="2" id="spine2:e1-2:leaf2:eth3">
          <mxCell style="ellipse;whiteSpace=wrap;html=1;aspect=fixed;fontColor=#FFFFFF;fontSize=8;strokeColor=#98A2AE;fillColor=#BEC8D2;" parent="group-spine2" vertex="1">
            <mxGeometry x="31.5" y="69" width="12" height="12" as="geometry" />
          </mxCell>
        </object>
        <object label="3" id="spine2:e1-3:leaf3:eth3">
          <mxCell style="ellipse;whiteSpace=wrap;html=1;aspect=fixed;fontColor=#FFFFFF;fontSize=8;strokeColor=#98A2AE;fillColor=#BEC8D2;" parent="group-spine2" vertex="1">
            <mxGeometry x="50.25" y="69" width="12" height="12" as="geometry" />
          </mxCell>
        </object>
        <mxCell id="group-client1" value="" style="group" parent="1" vertex="1" connectable="0">
          <mxGeometry x="138.25" y="191" width="75" height="81" as="geometry" />
        </mxCell>
        <object label="" id="client1">
          <mxCell style="shape=image;imageAlign=center;imageVerticalAlign=middle;labelPosition=left;align=right;verticalLabelPosition=top;spacingLeft=0;verticalAlign=bottom;spacingTop=0;spacing=0;editableCssRules=\.st[0-2]$;labelBackgroundColor=none;aspect=fixed;imageAspect=0;image=data:image/svg+xml,PHN2ZyB4bWxuczp4bGluaz0iaHR0cDovL3d3dy53My5vcmcvMTk5OS94bGluayIgeG1sbnM9Imh0dHA6Ly93d3cudzMub3JnLzIwMDAvc3ZnIiB4bWw6c3BhY2U9InByZXNlcnZlIiBzdHlsZT0iZW5hYmxlLWJhY2tncm91bmQ6bmV3IDAgMCAxMjAgMTIwOyIgdmlld0JveD0iMCAwIDEyMCAxMjAiIHk9IjBweCIgeD0iMHB4IiBpZD0iTGF5ZXJfMSIgdmVyc2lvbj0iMS4xIj4mI3hhOzxzdHlsZSB0eXBlPSJ0ZXh0L2NzcyI+JiN4YTsJLnN0MHtmaWxsOiMwMDExMzU7fSYjeGE7CS5zdDF7ZmlsbDpub25lO3N0cm9rZTojRkZGRkZGO3N0cm9rZS13aWR0aDo0O3N0cm9rZS1saW5lY2FwOnJvdW5kO3N0cm9rZS1saW5lam9pbjpyb3VuZDtzdHJva2UtbWl0ZXJsaW1pdDoxMDt9JiN4YTsJLnN0MntmaWxsOiNGRkZGRkY7fSYjeGE7CS5zdDN7ZmlsbDpub25lO3N0cm9rZTojRkZGRkZGO3N0cm9rZS13aWR0aDo0O3N0cm9rZS1taXRlcmxpbWl0OjEwO30mI3hhOwkuc3Q0e2ZpbGw6bm9uZTtzdHJva2U6I0ZGRkZGRjtzdHJva2Utd2lkdGg6NDtzdHJva2UtbGluZWNhcDpyb3VuZDtzdHJva2UtbGluZWpvaW46cm91bmQ7fSYjeGE7CS5zdDV7ZmlsbDojRkZGRkZGO3N0cm9rZTojRkZGRkZGO3N0cm9rZS13aWR0aDo0O3N0cm9rZS1saW5lY2FwOnJvdW5kO3N0cm9rZS1saW5lam9pbjpyb3VuZDtzdHJva2UtbWl0ZXJsaW1pdDoxMDt9JiN4YTsJLnN0NntmaWxsOm5vbmU7c3Ryb2tlOiNGRkZGRkY7c3Ryb2tlLXdpZHRoOjQuMjMzMztzdHJva2UtbGluZWNhcDpyb3VuZDtzdHJva2UtbGluZWpvaW46cm91bmQ7c3Ryb2tlLW1pdGVybGltaXQ6MTA7fSYjeGE7CS5zdDd7ZmlsbDpub25lO3N0cm9rZTojRkZGRkZGO3N0cm9rZS13aWR0aDo0O3N0cm9rZS1saW5lY2FwOnJvdW5kO3N0cm9rZS1taXRlcmxpbWl0OjEwO30mI3hhOwkuc3Q4e2ZpbGw6I0ZGRkZGRjtzdHJva2U6I0ZGRkZGRjtzdHJva2Utd2lkdGg6NDtzdHJva2UtbWl0ZXJsaW1pdDoxMDt9JiN4YTsJLnN0OXtmaWxsOiNGRkZGRkY7c3Ryb2tlOiNGRkZGRkY7c3Ryb2tlLXdpZHRoOjQ7fSYjeGE7CS5zdDEwe2ZpbGw6bm9uZTtzdHJva2U6I0ZGRkZGRjtzdHJva2Utd2lkdGg6NDt9JiN4YTsJLnN0MTF7ZmlsbDojMjYyNjI2O3N0cm9rZTojRkZGRkZGO3N0cm9rZS13aWR0aDo0LjIzMzM7fSYjeGE7CS5zdDEye2ZpbGwtcnVsZTpldmVub2RkO2NsaXAtcnVsZTpldmVub2RkO2ZpbGw6bm9uZTtzdHJva2U6I0ZGRkZGRjtzdHJva2Utd2lkdGg6NDtzdHJva2UtbWl0ZXJsaW1pdDoxMDt9JiN4YTsJLnN0MTN7ZmlsbC1ydWxlOmV2ZW5vZGQ7Y2xpcC1ydWxlOmV2ZW5vZGQ7ZmlsbDojRkZGRkZGO3N0cm9rZTojRkZGRkZGO3N0cm9rZS13aWR0aDo0O30mI3hhOwkuc3QxNHtmaWxsOm5vbmU7c3Ryb2tlOiNGRkZGRkY7c3Ryb2tlLXdpZHRoOjQuMjMzMztzdHJva2UtbGluZWNhcDpyb3VuZDtzdHJva2UtbGluZWpvaW46cm91bmQ7fSYjeGE7CS5zdDE1e2ZpbGw6bm9uZTtzdHJva2U6I0ZGRkZGRjtzdHJva2Utd2lkdGg6NDtzdHJva2UtbGluZWNhcDpyb3VuZDt9JiN4YTsJLnN0MTZ7ZmlsbDojRkZGRkZGO3N0cm9rZTojRkZGRkZGO3N0cm9rZS1taXRlcmxpbWl0OjEwO30mI3hhOwkuc3QxN3tmaWxsOiMyNjI2MjY7c3Ryb2tlOiNGRkZGRkY7c3Ryb2tlLXdpZHRoOjQ7c3Ryb2tlLW1pdGVybGltaXQ6MTA7fSYjeGE7CS5zdDE4e2ZpbGw6I0ZGRkZGRjtzdHJva2U6I0ZGRkZGRjtzdHJva2Utd2lkdGg6NDtzdHJva2UtbGluZWNhcDpyb3VuZDtzdHJva2UtbGluZWpvaW46cm91bmQ7fSYjeGE7PC9zdHlsZT4mI3hhOzxyZWN0IGhlaWdodD0iMTIwIiB3aWR0aD0iMTIwIiBjbGFzcz0ic3QwIi8+JiN4YTs8Zz4mI3hhOwk8cGF0aCBkPSJNMTAwLDkxLjFIMjBIMTAweiBNODkuMSwzMi41YzAtMC41LDAtMS0wLjItMS40Yy0wLjItMC41LTAuNC0wLjktMC44LTEuMmMtMC4zLTAuMy0wLjgtMC42LTEuMi0wLjgmIzEwOyYjOTsmIzk7Yy0wLjUtMC4yLTAuOS0wLjItMS40LTAuMkgzNC42Yy0wLjUsMC0xLDAtMS40LDAuMmMtMC41LDAuMi0wLjksMC40LTEuMiwwLjhjLTAuMywwLjMtMC42LDAuOC0wLjgsMS4yYy0wLjIsMC41LTAuMiwwLjktMC4yLDEuNCYjMTA7JiM5OyYjOTtWNzZoNTguMlYzMi41eiIgY2xhc3M9InN0NCIvPiYjeGE7PC9nPiYjeGE7PC9zdmc+;" parent="group-client1" vertex="1">
            <mxGeometry width="75" height="75" as="geometry" />
          </mxCell>
        </object>
        <object label="1" id="client1:eth1:leaf1:eth1">
          <mxCell style="ellipse;whiteSpace=wrap;html=1;aspect=fixed;fontColor=#FFFFFF;fontSize=8;strokeColor=#98A2AE;fillColor=#BEC8D2;" parent="group-client1" vertex="1">
            <mxGeometry x="31.5" y="-4" width="12" height="12" as="geometry" />
          </mxCell>
        </object>
        <mxCell id="group-client2" value="" style="group" parent="1" vertex="1" connectable="0">
          <mxGeometry x="390.72" y="195" width="75" height="81" as="geometry" />
        </mxCell>
        <object label="" id="client2">
          <mxCell style="shape=image;imageAlign=center;imageVerticalAlign=middle;labelPosition=left;align=right;verticalLabelPosition=top;spacingLeft=0;verticalAlign=bottom;spacingTop=0;spacing=0;editableCssRules=\.st[0-2]$;labelBackgroundColor=none;aspect=fixed;imageAspect=0;image=data:image/svg+xml,PHN2ZyB4bWxuczp4bGluaz0iaHR0cDovL3d3dy53My5vcmcvMTk5OS94bGluayIgeG1sbnM9Imh0dHA6Ly93d3cudzMub3JnLzIwMDAvc3ZnIiB4bWw6c3BhY2U9InByZXNlcnZlIiBzdHlsZT0iZW5hYmxlLWJhY2tncm91bmQ6bmV3IDAgMCAxMjAgMTIwOyIgdmlld0JveD0iMCAwIDEyMCAxMjAiIHk9IjBweCIgeD0iMHB4IiBpZD0iTGF5ZXJfMSIgdmVyc2lvbj0iMS4xIj4mI3hhOzxzdHlsZSB0eXBlPSJ0ZXh0L2NzcyI+JiN4YTsJLnN0MHtmaWxsOiMwMDExMzU7fSYjeGE7CS5zdDF7ZmlsbDpub25lO3N0cm9rZTojRkZGRkZGO3N0cm9rZS13aWR0aDo0O3N0cm9rZS1saW5lY2FwOnJvdW5kO3N0cm9rZS1saW5lam9pbjpyb3VuZDtzdHJva2UtbWl0ZXJsaW1pdDoxMDt9JiN4YTsJLnN0MntmaWxsOiNGRkZGRkY7fSYjeGE7CS5zdDN7ZmlsbDpub25lO3N0cm9rZTojRkZGRkZGO3N0cm9rZS13aWR0aDo0O3N0cm9rZS1taXRlcmxpbWl0OjEwO30mI3hhOwkuc3Q0e2ZpbGw6bm9uZTtzdHJva2U6I0ZGRkZGRjtzdHJva2Utd2lkdGg6NDtzdHJva2UtbGluZWNhcDpyb3VuZDtzdHJva2UtbGluZWpvaW46cm91bmQ7fSYjeGE7CS5zdDV7ZmlsbDojRkZGRkZGO3N0cm9rZTojRkZGRkZGO3N0cm9rZS13aWR0aDo0O3N0cm9rZS1saW5lY2FwOnJvdW5kO3N0cm9rZS1saW5lam9pbjpyb3VuZDtzdHJva2UtbWl0ZXJsaW1pdDoxMDt9JiN4YTsJLnN0NntmaWxsOm5vbmU7c3Ryb2tlOiNGRkZGRkY7c3Ryb2tlLXdpZHRoOjQuMjMzMztzdHJva2UtbGluZWNhcDpyb3VuZDtzdHJva2UtbGluZWpvaW46cm91bmQ7c3Ryb2tlLW1pdGVybGltaXQ6MTA7fSYjeGE7CS5zdDd7ZmlsbDpub25lO3N0cm9rZTojRkZGRkZGO3N0cm9rZS13aWR0aDo0O3N0cm9rZS1saW5lY2FwOnJvdW5kO3N0cm9rZS1taXRlcmxpbWl0OjEwO30mI3hhOwkuc3Q4e2ZpbGw6I0ZGRkZGRjtzdHJva2U6I0ZGRkZGRjtzdHJva2Utd2lkdGg6NDtzdHJva2UtbWl0ZXJsaW1pdDoxMDt9JiN4YTsJLnN0OXtmaWxsOiNGRkZGRkY7c3Ryb2tlOiNGRkZGRkY7c3Ryb2tlLXdpZHRoOjQ7fSYjeGE7CS5zdDEwe2ZpbGw6bm9uZTtzdHJva2U6I0ZGRkZGRjtzdHJva2Utd2lkdGg6NDt9JiN4YTsJLnN0MTF7ZmlsbDojMjYyNjI2O3N0cm9rZTojRkZGRkZGO3N0cm9rZS13aWR0aDo0LjIzMzM7fSYjeGE7CS5zdDEye2ZpbGwtcnVsZTpldmVub2RkO2NsaXAtcnVsZTpldmVub2RkO2ZpbGw6bm9uZTtzdHJva2U6I0ZGRkZGRjtzdHJva2Utd2lkdGg6NDtzdHJva2UtbWl0ZXJsaW1pdDoxMDt9JiN4YTsJLnN0MTN7ZmlsbC1ydWxlOmV2ZW5vZGQ7Y2xpcC1ydWxlOmV2ZW5vZGQ7ZmlsbDojRkZGRkZGO3N0cm9rZTojRkZGRkZGO3N0cm9rZS13aWR0aDo0O30mI3hhOwkuc3QxNHtmaWxsOm5vbmU7c3Ryb2tlOiNGRkZGRkY7c3Ryb2tlLXdpZHRoOjQuMjMzMztzdHJva2UtbGluZWNhcDpyb3VuZDtzdHJva2UtbGluZWpvaW46cm91bmQ7fSYjeGE7CS5zdDE1e2ZpbGw6bm9uZTtzdHJva2U6I0ZGRkZGRjtzdHJva2Utd2lkdGg6NDtzdHJva2UtbGluZWNhcDpyb3VuZDt9JiN4YTsJLnN0MTZ7ZmlsbDojRkZGRkZGO3N0cm9rZTojRkZGRkZGO3N0cm9rZS1taXRlcmxpbWl0OjEwO30mI3hhOwkuc3QxN3tmaWxsOiMyNjI2MjY7c3Ryb2tlOiNGRkZGRkY7c3Ryb2tlLXdpZHRoOjQ7c3Ryb2tlLW1pdGVybGltaXQ6MTA7fSYjeGE7CS5zdDE4e2ZpbGw6I0ZGRkZGRjtzdHJva2U6I0ZGRkZGRjtzdHJva2Utd2lkdGg6NDtzdHJva2UtbGluZWNhcDpyb3VuZDtzdHJva2UtbGluZWpvaW46cm91bmQ7fSYjeGE7PC9zdHlsZT4mI3hhOzxyZWN0IGhlaWdodD0iMTIwIiB3aWR0aD0iMTIwIiBjbGFzcz0ic3QwIi8+JiN4YTs8Zz4mI3hhOwk8cGF0aCBkPSJNMTAwLDkxLjFIMjBIMTAweiBNODkuMSwzMi41YzAtMC41LDAtMS0wLjItMS40Yy0wLjItMC41LTAuNC0wLjktMC44LTEuMmMtMC4zLTAuMy0wLjgtMC42LTEuMi0wLjgmIzEwOyYjOTsmIzk7Yy0wLjUtMC4yLTAuOS0wLjItMS40LTAuMkgzNC42Yy0wLjUsMC0xLDAtMS40LDAuMmMtMC41LDAuMi0wLjksMC40LTEuMiwwLjhjLTAuMywwLjMtMC42LDAuOC0wLjgsMS4yYy0wLjIsMC41LTAuMiwwLjktMC4yLDEuNCYjMTA7JiM5OyYjOTtWNzZoNTguMlYzMi41eiIgY2xhc3M9InN0NCIvPiYjeGE7PC9nPiYjeGE7PC9zdmc+;" parent="group-client2" vertex="1">
            <mxGeometry y="-4" width="75" height="75" as="geometry" />
          </mxCell>
        </object>
        <object label="1" id="client2:eth1:leaf2:eth1">
          <mxCell style="ellipse;whiteSpace=wrap;html=1;aspect=fixed;fontColor=#FFFFFF;fontSize=8;strokeColor=#98A2AE;fillColor=#BEC8D2;" parent="group-client2" vertex="1">
            <mxGeometry x="31.5" y="-4" width="12" height="12" as="geometry" />
          </mxCell>
        </object>
        <mxCell id="group-client3" value="" style="group" parent="1" vertex="1" connectable="0">
          <mxGeometry x="628" y="191" width="75" height="81" as="geometry" />
        </mxCell>
        <object label="" id="client3">
          <mxCell style="shape=image;imageAlign=center;imageVerticalAlign=middle;labelPosition=left;align=right;verticalLabelPosition=top;spacingLeft=0;verticalAlign=bottom;spacingTop=0;spacing=0;editableCssRules=\.st[0-2]$;labelBackgroundColor=none;aspect=fixed;imageAspect=0;image=data:image/svg+xml,PHN2ZyB4bWxuczp4bGluaz0iaHR0cDovL3d3dy53My5vcmcvMTk5OS94bGluayIgeG1sbnM9Imh0dHA6Ly93d3cudzMub3JnLzIwMDAvc3ZnIiB4bWw6c3BhY2U9InByZXNlcnZlIiBzdHlsZT0iZW5hYmxlLWJhY2tncm91bmQ6bmV3IDAgMCAxMjAgMTIwOyIgdmlld0JveD0iMCAwIDEyMCAxMjAiIHk9IjBweCIgeD0iMHB4IiBpZD0iTGF5ZXJfMSIgdmVyc2lvbj0iMS4xIj4mI3hhOzxzdHlsZSB0eXBlPSJ0ZXh0L2NzcyI+JiN4YTsJLnN0MHtmaWxsOiMwMDExMzU7fSYjeGE7CS5zdDF7ZmlsbDpub25lO3N0cm9rZTojRkZGRkZGO3N0cm9rZS13aWR0aDo0O3N0cm9rZS1saW5lY2FwOnJvdW5kO3N0cm9rZS1saW5lam9pbjpyb3VuZDtzdHJva2UtbWl0ZXJsaW1pdDoxMDt9JiN4YTsJLnN0MntmaWxsOiNGRkZGRkY7fSYjeGE7CS5zdDN7ZmlsbDpub25lO3N0cm9rZTojRkZGRkZGO3N0cm9rZS13aWR0aDo0O3N0cm9rZS1taXRlcmxpbWl0OjEwO30mI3hhOwkuc3Q0e2ZpbGw6bm9uZTtzdHJva2U6I0ZGRkZGRjtzdHJva2Utd2lkdGg6NDtzdHJva2UtbGluZWNhcDpyb3VuZDtzdHJva2UtbGluZWpvaW46cm91bmQ7fSYjeGE7CS5zdDV7ZmlsbDojRkZGRkZGO3N0cm9rZTojRkZGRkZGO3N0cm9rZS13aWR0aDo0O3N0cm9rZS1saW5lY2FwOnJvdW5kO3N0cm9rZS1saW5lam9pbjpyb3VuZDtzdHJva2UtbWl0ZXJsaW1pdDoxMDt9JiN4YTsJLnN0NntmaWxsOm5vbmU7c3Ryb2tlOiNGRkZGRkY7c3Ryb2tlLXdpZHRoOjQuMjMzMztzdHJva2UtbGluZWNhcDpyb3VuZDtzdHJva2UtbGluZWpvaW46cm91bmQ7c3Ryb2tlLW1pdGVybGltaXQ6MTA7fSYjeGE7CS5zdDd7ZmlsbDpub25lO3N0cm9rZTojRkZGRkZGO3N0cm9rZS13aWR0aDo0O3N0cm9rZS1saW5lY2FwOnJvdW5kO3N0cm9rZS1taXRlcmxpbWl0OjEwO30mI3hhOwkuc3Q4e2ZpbGw6I0ZGRkZGRjtzdHJva2U6I0ZGRkZGRjtzdHJva2Utd2lkdGg6NDtzdHJva2UtbWl0ZXJsaW1pdDoxMDt9JiN4YTsJLnN0OXtmaWxsOiNGRkZGRkY7c3Ryb2tlOiNGRkZGRkY7c3Ryb2tlLXdpZHRoOjQ7fSYjeGE7CS5zdDEwe2ZpbGw6bm9uZTtzdHJva2U6I0ZGRkZGRjtzdHJva2Utd2lkdGg6NDt9JiN4YTsJLnN0MTF7ZmlsbDojMjYyNjI2O3N0cm9rZTojRkZGRkZGO3N0cm9rZS13aWR0aDo0LjIzMzM7fSYjeGE7CS5zdDEye2ZpbGwtcnVsZTpldmVub2RkO2NsaXAtcnVsZTpldmVub2RkO2ZpbGw6bm9uZTtzdHJva2U6I0ZGRkZGRjtzdHJva2Utd2lkdGg6NDtzdHJva2UtbWl0ZXJsaW1pdDoxMDt9JiN4YTsJLnN0MTN7ZmlsbC1ydWxlOmV2ZW5vZGQ7Y2xpcC1ydWxlOmV2ZW5vZGQ7ZmlsbDojRkZGRkZGO3N0cm9rZTojRkZGRkZGO3N0cm9rZS13aWR0aDo0O30mI3hhOwkuc3QxNHtmaWxsOm5vbmU7c3Ryb2tlOiNGRkZGRkY7c3Ryb2tlLXdpZHRoOjQuMjMzMztzdHJva2UtbGluZWNhcDpyb3VuZDtzdHJva2UtbGluZWpvaW46cm91bmQ7fSYjeGE7CS5zdDE1e2ZpbGw6bm9uZTtzdHJva2U6I0ZGRkZGRjtzdHJva2Utd2lkdGg6NDtzdHJva2UtbGluZWNhcDpyb3VuZDt9JiN4YTsJLnN0MTZ7ZmlsbDojRkZGRkZGO3N0cm9rZTojRkZGRkZGO3N0cm9rZS1taXRlcmxpbWl0OjEwO30mI3hhOwkuc3QxN3tmaWxsOiMyNjI2MjY7c3Ryb2tlOiNGRkZGRkY7c3Ryb2tlLXdpZHRoOjQ7c3Ryb2tlLW1pdGVybGltaXQ6MTA7fSYjeGE7CS5zdDE4e2ZpbGw6I0ZGRkZGRjtzdHJva2U6I0ZGRkZGRjtzdHJva2Utd2lkdGg6NDtzdHJva2UtbGluZWNhcDpyb3VuZDtzdHJva2UtbGluZWpvaW46cm91bmQ7fSYjeGE7PC9zdHlsZT4mI3hhOzxyZWN0IGhlaWdodD0iMTIwIiB3aWR0aD0iMTIwIiBjbGFzcz0ic3QwIi8+JiN4YTs8Zz4mI3hhOwk8cGF0aCBkPSJNMTAwLDkxLjFIMjBIMTAweiBNODkuMSwzMi41YzAtMC41LDAtMS0wLjItMS40Yy0wLjItMC41LTAuNC0wLjktMC44LTEuMmMtMC4zLTAuMy0wLjgtMC42LTEuMi0wLjgmIzEwOyYjOTsmIzk7Yy0wLjUtMC4yLTAuOS0wLjItMS40LTAuMkgzNC42Yy0wLjUsMC0xLDAtMS40LDAuMmMtMC41LDAuMi0wLjksMC40LTEuMiwwLjhjLTAuMywwLjMtMC42LDAuOC0wLjgsMS4yYy0wLjIsMC41LTAuMiwwLjktMC4yLDEuNCYjMTA7JiM5OyYjOTtWNzZoNTguMlYzMi41eiIgY2xhc3M9InN0NCIvPiYjeGE7PC9nPiYjeGE7PC9zdmc+;" parent="group-client3" vertex="1">
            <mxGeometry width="75" height="75" as="geometry" />
          </mxCell>
        </object>
        <object label="1" id="client3:eth1:leaf3:eth1">
          <mxCell style="ellipse;whiteSpace=wrap;html=1;aspect=fixed;fontColor=#FFFFFF;fontSize=8;strokeColor=#98A2AE;fillColor=#BEC8D2;" parent="group-client3" vertex="1">
            <mxGeometry x="31.5" y="-6" width="12" height="12" as="geometry" />
          </mxCell>
        </object>
        <mxCell id="99i_NhPjUNV8hFVQTbC_-1" value="" style="ellipse;whiteSpace=wrap;html=1;aspect=fixed;fontColor=#FFFFFF;fontSize=12;fontFamily=Google Sans;fontSource=https%3A%2F%2Ffonts.googleapis.com%2Fcss%3Ffamily%3DGoogle%2BSans;fillColor=#BEC8D2;strokeColor=none;" vertex="1" parent="1">
          <mxGeometry x="57" y="-328" width="10" height="10" as="geometry" />
        </mxCell>
        <mxCell id="99i_NhPjUNV8hFVQTbC_-2" value="&lt;font style=&quot;font-size: 12px;&quot;&gt;0 - 0.2 Mbps&lt;/font&gt;" style="text;html=1;align=left;verticalAlign=middle;resizable=0;points=[];autosize=1;fontSize=12;fontFamily=Google Sans;fontStyle=0;fontColor=#FFFFFF;fontSource=https%3A%2F%2Ffonts.googleapis.com%2Fcss%3Ffamily%3DGoogle%2BSans;" vertex="1" parent="1">
          <mxGeometry x="69.60000000000002" y="-336" width="87" height="26" as="geometry" />
        </mxCell>
        <mxCell id="99i_NhPjUNV8hFVQTbC_-3" value="" style="ellipse;whiteSpace=wrap;html=1;aspect=fixed;fontColor=#FFFFFF;fontSize=12;fontFamily=Google Sans;fontSource=https%3A%2F%2Ffonts.googleapis.com%2Fcss%3Ffamily%3DGoogle%2BSans;strokeColor=none;fillColor=#4BDD33;" vertex="1" parent="1">
          <mxGeometry x="57" y="-311" width="10" height="10" as="geometry" />
        </mxCell>
        <mxCell id="99i_NhPjUNV8hFVQTbC_-4" value="&lt;font style=&quot;font-size: 12px;&quot;&gt;0.2 - 0.5 Mbps&lt;/font&gt;" style="text;html=1;align=left;verticalAlign=middle;resizable=0;points=[];autosize=1;fontSize=12;fontFamily=Google Sans;fontStyle=0;fontColor=#FFFFFF;fontSource=https%3A%2F%2Ffonts.googleapis.com%2Fcss%3Ffamily%3DGoogle%2BSans;" vertex="1" parent="1">
          <mxGeometry x="70" y="-319" width="96" height="26" as="geometry" />
        </mxCell>
        <mxCell id="99i_NhPjUNV8hFVQTbC_-5" value="" style="ellipse;whiteSpace=wrap;html=1;aspect=fixed;fontColor=#FFFFFF;fontSize=12;fontFamily=Google Sans;fontSource=https%3A%2F%2Ffonts.googleapis.com%2Fcss%3Ffamily%3DGoogle%2BSans;strokeColor=none;fillColor=#FF8000;" vertex="1" parent="1">
          <mxGeometry x="57" y="-277" width="10" height="10" as="geometry" />
        </mxCell>
        <mxCell id="99i_NhPjUNV8hFVQTbC_-6" value="&lt;font style=&quot;font-size: 12px;&quot;&gt;1 - 5 Mbps&lt;/font&gt;" style="text;html=1;align=left;verticalAlign=middle;resizable=0;points=[];autosize=1;fontSize=12;fontFamily=Google Sans;fontStyle=0;fontColor=#FFFFFF;fontSource=https%3A%2F%2Ffonts.googleapis.com%2Fcss%3Ffamily%3DGoogle%2BSans;" vertex="1" parent="1">
          <mxGeometry x="70" y="-285" width="74" height="26" as="geometry" />
        </mxCell>
        <mxCell id="99i_NhPjUNV8hFVQTbC_-7" value="" style="ellipse;whiteSpace=wrap;html=1;aspect=fixed;fontColor=#FFFFFF;fontSize=12;fontFamily=Google Sans;fontSource=https%3A%2F%2Ffonts.googleapis.com%2Fcss%3Ffamily%3DGoogle%2BSans;strokeColor=none;fillColor=#FF3154;" vertex="1" parent="1">
          <mxGeometry x="57" y="-260" width="10" height="10" as="geometry" />
        </mxCell>
        <mxCell id="99i_NhPjUNV8hFVQTbC_-8" value="&lt;font style=&quot;font-size: 12px;&quot;&gt;5+ Mbps&lt;/font&gt;" style="text;html=1;align=left;verticalAlign=middle;resizable=0;points=[];autosize=1;fontSize=12;fontFamily=Google Sans;fontStyle=0;fontColor=#FFFFFF;fontSource=https%3A%2F%2Ffonts.googleapis.com%2Fcss%3Ffamily%3DGoogle%2BSans;" vertex="1" parent="1">
          <mxGeometry x="69.60000000000002" y="-268" width="65" height="26" as="geometry" />
        </mxCell>
        <mxCell id="99i_NhPjUNV8hFVQTbC_-9" value="" style="ellipse;whiteSpace=wrap;html=1;aspect=fixed;fontColor=#FFFFFF;fontSize=12;fontFamily=Google Sans;fontSource=https%3A%2F%2Ffonts.googleapis.com%2Fcss%3Ffamily%3DGoogle%2BSans;strokeColor=none;fillColor=#FFFF00;" vertex="1" parent="1">
          <mxGeometry x="57" y="-294" width="10" height="10" as="geometry" />
        </mxCell>
        <mxCell id="99i_NhPjUNV8hFVQTbC_-10" value="&lt;font style=&quot;font-size: 12px;&quot;&gt;0.5 - 1 Mbps&lt;/font&gt;" style="text;html=1;align=left;verticalAlign=middle;resizable=0;points=[];autosize=1;fontSize=12;fontFamily=Google Sans;fontStyle=0;fontColor=#FFFFFF;fontSource=https%3A%2F%2Ffonts.googleapis.com%2Fcss%3Ffamily%3DGoogle%2BSans;" vertex="1" parent="1">
          <mxGeometry x="69.60000000000002" y="-302" width="84" height="26" as="geometry" />
        </mxCell>
        <mxCell id="99i_NhPjUNV8hFVQTbC_-16" value="spine1" style="text;html=1;align=center;verticalAlign=middle;resizable=0;points=[];autosize=1;fontSize=14;fontFamily=Google Sans;fontStyle=0;fontColor=#FFFFFF;fontSource=https%3A%2F%2Ffonts.googleapis.com%2Fcss%3Ffamily%3DGoogle%2BSans;rotation=0;" vertex="1" parent="1">
          <mxGeometry x="263.5" y="-347" width="58" height="29" as="geometry" />
        </mxCell>
        <mxCell id="99i_NhPjUNV8hFVQTbC_-17" value="spine2" style="text;html=1;align=center;verticalAlign=middle;resizable=0;points=[];autosize=1;fontSize=14;fontFamily=Google Sans;fontStyle=0;fontColor=#FFFFFF;fontSource=https%3A%2F%2Ffonts.googleapis.com%2Fcss%3Ffamily%3DGoogle%2BSans;rotation=0;" vertex="1" parent="1">
          <mxGeometry x="507.5" y="-339" width="59" height="29" as="geometry" />
        </mxCell>
        <mxCell id="99i_NhPjUNV8hFVQTbC_-18" value="client1" style="text;html=1;align=center;verticalAlign=middle;resizable=0;points=[];autosize=1;fontSize=14;fontFamily=Google Sans;fontStyle=0;fontColor=#FFFFFF;fontSource=https%3A%2F%2Ffonts.googleapis.com%2Fcss%3Ffamily%3DGoogle%2BSans;rotation=0;" vertex="1" parent="1">
          <mxGeometry x="146.75" y="264" width="58" height="29" as="geometry" />
        </mxCell>
        <mxCell id="99i_NhPjUNV8hFVQTbC_-19" value="client2" style="text;html=1;align=center;verticalAlign=middle;resizable=0;points=[];autosize=1;fontSize=14;fontFamily=Google Sans;fontStyle=0;fontColor=#FFFFFF;fontSource=https%3A%2F%2Ffonts.googleapis.com%2Fcss%3Ffamily%3DGoogle%2BSans;rotation=0;" vertex="1" parent="1">
          <mxGeometry x="399.22" y="264" width="59" height="29" as="geometry" />
        </mxCell>
        <mxCell id="99i_NhPjUNV8hFVQTbC_-20" value="client3" style="text;html=1;align=center;verticalAlign=middle;resizable=0;points=[];autosize=1;fontSize=14;fontFamily=Google Sans;fontStyle=0;fontColor=#FFFFFF;fontSource=https%3A%2F%2Ffonts.googleapis.com%2Fcss%3Ffamily%3DGoogle%2BSans;rotation=0;" vertex="1" parent="1">
          <mxGeometry x="636.5" y="264" width="59" height="29" as="geometry" />
        </mxCell>
        <mxCell id="99i_NhPjUNV8hFVQTbC_-21" value="leaf1" style="text;html=1;align=center;verticalAlign=middle;resizable=0;points=[];autosize=1;fontSize=14;fontFamily=Google Sans;fontStyle=0;fontColor=#FFFFFF;fontSource=https%3A%2F%2Ffonts.googleapis.com%2Fcss%3Ffamily%3DGoogle%2BSans;rotation=270;" vertex="1" parent="1">
          <mxGeometry x="103" y="1" width="47" height="29" as="geometry" />
        </mxCell>
        <mxCell id="99i_NhPjUNV8hFVQTbC_-22" value="leaf2" style="text;html=1;align=center;verticalAlign=middle;resizable=0;points=[];autosize=1;fontSize=14;fontFamily=Google Sans;fontStyle=0;fontColor=#FFFFFF;fontSource=https%3A%2F%2Ffonts.googleapis.com%2Fcss%3Ffamily%3DGoogle%2BSans;rotation=270;" vertex="1" parent="1">
          <mxGeometry x="356" y="1" width="48" height="29" as="geometry" />
        </mxCell>
        <mxCell id="99i_NhPjUNV8hFVQTbC_-23" value="leaf3" style="text;html=1;align=center;verticalAlign=middle;resizable=0;points=[];autosize=1;fontSize=14;fontFamily=Google Sans;fontStyle=0;fontColor=#FFFFFF;fontSource=https%3A%2F%2Ffonts.googleapis.com%2Fcss%3Ffamily%3DGoogle%2BSans;rotation=270;" vertex="1" parent="1">
          <mxGeometry x="591" y="1" width="49" height="29" as="geometry" />
        </mxCell>
      </root>
    </mxGraphModel>
  </diagram>
</mxfile>
